<svg width="451" height="485" viewBox="0 0 451 485" fill="none" xmlns="http://www.w3.org/2000/svg">
<path d="M23.6337 364.94C28.0103 368.07 37.2012 372.543 51.2063 378.358C65.6491 383.725 82.499 386.409 101.756 386.409C117.074 386.409 129.548 383.725 139.176 378.358C149.242 372.991 156.683 364.939 161.497 354.205C166.749 343.023 170.25 328.71 172.001 311.266C173.751 293.375 174.627 271.905 174.627 246.857V0.629028H282.291V242.832C282.291 278.614 280.322 311.266 276.383 340.786C272.444 370.307 264.347 396.026 252.093 417.942C240.276 439.412 222.332 455.961 198.26 467.591C174.189 478.773 142.021 484.364 101.756 484.364C81.1861 484.364 62.5855 481.904 45.9544 476.983C29.3233 472.063 14.0051 464.683 0 454.843L23.6337 364.94Z" fill="white"/>
<rect x="177" width="274" height="105" fill="white"/>
<rect x="336" y="194" width="115" height="89" fill="white"/>
</svg>
