<svg width="825" height="804" viewBox="0 0 825 804" fill="none" xmlns="http://www.w3.org/2000/svg">
<path d="M737.022 376.372C737.022 197.542 591.957 52.5715 413.011 52.5715C234.065 52.5715 89 197.542 89 376.372C89 555.203 234.065 700.173 413.011 700.173C591.957 700.173 737.022 555.203 737.022 376.372Z" fill="#E24A4A" fill-opacity="0.2"/>
<g filter="url(#filter0_d_3_122)">
<circle cx="685.002" cy="197.002" r="45.0015" fill="#090E16"/>
</g>
<g clip-path="url(#clip0_3_122)">
<path fill-rule="evenodd" clip-rule="evenodd" d="M662.882 183.267C662.882 178.849 666.464 175.267 670.882 175.267H698.827C703.245 175.267 706.827 178.849 706.827 183.267V211.212C706.827 215.631 703.245 219.212 698.827 219.212H670.882C666.464 219.212 662.882 215.631 662.882 211.212V183.267ZM674.437 211.991C674.437 211.991 674.437 211.991 674.437 211.991L674.437 211.991C675.41 214.056 677.328 215.766 680.631 215.766C684.289 215.766 686.797 213.819 686.797 209.542V197.507C686.797 196.367 685.872 195.442 684.732 195.442C683.591 195.442 682.667 196.367 682.667 197.507V209.484C682.667 211.548 681.811 212.079 680.454 212.079C678.481 212.079 676.403 210.801 674.714 211.823L674.437 211.991L674.437 211.991C674.437 211.991 674.437 211.991 674.437 211.991ZM692.855 210.269C692.584 209.911 692.092 209.781 691.704 210.006L689.04 211.548C689.04 211.548 689.04 211.548 689.04 211.548C689.04 211.548 689.04 211.548 689.04 211.548C690.249 213.938 692.727 215.767 696.562 215.767C700.485 215.767 703.405 213.732 703.405 210.014C703.405 206.563 701.429 205.029 697.919 203.525L696.886 203.082C695.116 202.315 694.349 201.814 694.349 200.575C694.349 199.572 695.116 198.805 696.326 198.805C696.83 198.805 697.258 198.897 697.639 199.1C698.605 199.616 699.76 200.075 700.682 199.483C701.531 198.937 701.833 197.791 701.142 197.056C699.906 195.739 698.331 195.206 696.326 195.206C692.638 195.206 690.279 197.566 690.279 200.663C690.279 204.026 692.255 205.619 695.235 206.887L696.267 207.33C698.155 208.156 699.276 208.658 699.276 210.073C699.276 211.253 698.184 212.109 696.473 212.109C694.767 212.109 693.682 211.363 692.855 210.269Z" fill="white"/>
</g>
<g filter="url(#filter1_d_3_122)">
<circle cx="707.002" cy="536.002" r="45.0015" fill="#090E16"/>
</g>
<path d="M719.416 527.5L720.452 528.25C722.254 529.703 723.29 531.343 723.515 533.218C725.451 532.843 727.928 533.124 729.009 533.874L730 534.484L729.82 534.859C729.505 535.562 729.415 535.749 729.369 535.843C727.613 539.359 724.145 539.405 722.524 539.359C718.426 549.624 709.689 555.295 697.889 555.295C692.44 555.295 688.296 553.561 685.504 550.139C681.811 545.64 681.811 539.78 682.126 537.906L682.217 537.531H714.778C716.489 537.531 717.795 537.062 718.426 536.687C717.75 535.656 717.525 534.484 717.48 533.828C717.345 531.953 717.795 529.984 718.696 528.578L719.416 527.5ZM690.683 531.906V536.593H685.729V531.906H690.683ZM696.538 531.906V536.593H691.584V531.906H696.538ZM702.393 531.906V536.593H697.439V531.906H702.393ZM708.247 531.906V536.593H703.293V531.906H708.247ZM714.102 531.906V536.593H709.148V531.906H714.102ZM708.247 526.281V530.968H703.293V526.281H708.247ZM702.393 526.281V530.968H697.439V526.281H702.393ZM696.538 526.281V530.968H691.584V526.281H696.538ZM708.247 520.656V525.344H703.293V520.656H708.247Z" fill="white"/>
<g filter="url(#filter2_d_3_122)">
<circle cx="730.002" cy="362.002" r="45.0015" fill="#090E16"/>
</g>
<path fill-rule="evenodd" clip-rule="evenodd" d="M729.5 339.102C716.827 339.102 706.551 349.376 706.551 362.051C706.551 372.191 713.126 380.793 722.245 383.828C723.392 384.04 723.813 383.33 723.813 382.724C723.813 382.176 723.792 380.369 723.782 378.451C717.397 379.839 716.05 375.743 716.05 375.743C715.006 373.091 713.502 372.385 713.502 372.385C711.42 370.961 713.659 370.99 713.659 370.99C715.963 371.152 717.177 373.355 717.177 373.355C719.224 376.864 722.546 375.849 723.855 375.263C724.061 373.78 724.656 372.767 725.312 372.194C720.215 371.614 714.856 369.646 714.856 360.852C714.856 358.347 715.753 356.3 717.221 354.692C716.983 354.114 716.197 351.78 717.443 348.619C717.443 348.619 719.37 348.002 723.756 350.972C725.587 350.463 727.55 350.208 729.5 350.199C731.451 350.208 733.415 350.463 735.249 350.972C739.63 348.002 741.554 348.619 741.554 348.619C742.803 351.78 742.017 354.114 741.779 354.692C743.251 356.3 744.141 358.347 744.141 360.852C744.141 369.667 738.772 371.608 733.662 372.176C734.485 372.888 735.219 374.285 735.219 376.426C735.219 379.496 735.192 381.968 735.192 382.724C735.192 383.334 735.605 384.05 736.768 383.825C745.882 380.787 752.449 372.187 752.449 362.051C752.449 349.376 742.174 339.102 729.5 339.102ZM715.146 371.793C715.096 371.907 714.916 371.942 714.753 371.863C714.586 371.789 714.493 371.633 714.547 371.519C714.596 371.401 714.776 371.369 714.942 371.447C715.109 371.522 715.204 371.679 715.146 371.793ZM716.275 372.801C716.165 372.902 715.952 372.855 715.806 372.695C715.656 372.535 715.628 372.321 715.739 372.218C715.852 372.116 716.059 372.164 716.21 372.324C716.36 372.486 716.389 372.698 716.275 372.801ZM717.049 374.09C716.909 374.187 716.679 374.096 716.537 373.892C716.396 373.687 716.396 373.443 716.54 373.345C716.682 373.247 716.909 373.335 717.053 373.537C717.193 373.745 717.193 373.99 717.049 374.09ZM718.359 375.582C718.233 375.721 717.965 375.684 717.769 375.494C717.569 375.309 717.513 375.047 717.639 374.908C717.766 374.769 718.036 374.808 718.233 374.996C718.432 375.18 718.493 375.445 718.359 375.582ZM720.052 376.086C719.996 376.266 719.738 376.347 719.478 376.271C719.219 376.192 719.049 375.982 719.101 375.8C719.155 375.619 719.415 375.534 719.676 375.616C719.936 375.694 720.106 375.903 720.052 376.086ZM721.978 376.3C721.985 376.489 721.764 376.646 721.491 376.649C721.217 376.655 720.995 376.502 720.992 376.316C720.992 376.125 721.207 375.969 721.482 375.965C721.755 375.96 721.978 376.112 721.978 376.3ZM723.871 376.227C723.903 376.412 723.714 376.601 723.443 376.652C723.176 376.701 722.93 376.587 722.896 376.403C722.863 376.214 723.056 376.025 723.322 375.976C723.593 375.928 723.836 376.039 723.871 376.227Z" fill="white"/>
<g filter="url(#filter3_d_3_122)">
<circle cx="95.0015" cy="360.002" r="45.0015" fill="#090E16"/>
</g>
<path fill-rule="evenodd" clip-rule="evenodd" d="M94.5469 387.283C93.835 387.283 93.1705 387.093 92.5535 386.761L86.2412 383.011C85.2919 382.489 85.7666 382.299 86.0513 382.204C87.3328 381.777 87.5701 381.682 88.899 380.923C89.0414 380.828 89.2312 380.876 89.3736 380.97L94.2147 383.866C94.4045 383.961 94.6418 383.961 94.7842 383.866L113.721 372.902C113.911 372.807 114.006 372.617 114.006 372.38V350.5C114.006 350.263 113.911 350.073 113.721 349.978L94.7842 339.062C94.5944 338.967 94.3571 338.967 94.2147 339.062L75.2776 349.978C75.0877 350.073 74.9928 350.31 74.9928 350.5V372.38C74.9928 372.57 75.0877 372.807 75.2776 372.902L80.4509 375.892C83.2511 377.316 85.0072 375.655 85.0072 373.994V352.399C85.0072 352.114 85.2445 351.829 85.5767 351.829H87.9972C88.282 351.829 88.5668 352.066 88.5668 352.399V373.994C88.5668 377.743 86.5259 379.926 82.9663 379.926C81.8747 379.926 81.0204 379.926 78.5999 378.74L73.6164 375.892C72.3824 375.18 71.623 373.851 71.623 372.427V350.548C71.623 349.124 72.3824 347.795 73.6164 347.083L92.5535 336.119C93.7401 335.455 95.3538 335.455 96.5403 336.119L115.477 347.083C116.711 347.795 117.471 349.124 117.471 350.548V372.427C117.471 373.851 116.711 375.18 115.477 375.892L96.5403 386.856C95.9233 387.14 95.2114 387.283 94.5469 387.283ZM100.385 372.238C92.0789 372.238 90.3703 368.441 90.3703 365.213C90.3703 364.929 90.6076 364.644 90.9399 364.644H93.4078C93.6926 364.644 93.9299 364.834 93.9299 365.118C94.3096 367.634 95.4012 368.868 100.432 368.868C104.419 368.868 106.128 367.966 106.128 365.83C106.128 364.596 105.653 363.695 99.4355 363.078C94.2622 362.555 91.0348 361.416 91.0348 357.287C91.0348 353.443 94.2622 351.165 99.6728 351.165C105.748 351.165 108.738 353.253 109.118 357.809C109.118 357.952 109.07 358.094 108.975 358.236C108.88 358.331 108.738 358.426 108.596 358.426H106.128C105.89 358.426 105.653 358.236 105.605 357.999C105.036 355.389 103.565 354.534 99.6728 354.534C95.3063 354.534 94.7842 356.053 94.7842 357.192C94.7842 358.569 95.4012 358.996 101.286 359.755C107.124 360.515 109.877 361.606 109.877 365.688C109.83 369.865 106.412 372.238 100.385 372.238Z" fill="white"/>
<g filter="url(#filter4_d_3_122)">
<circle cx="177.002" cy="152.002" r="45.0015" fill="#090E16"/>
</g>
<path d="M193.837 144.087C193.313 143.906 192.769 143.735 192.209 143.573C192.301 143.198 192.386 142.827 192.461 142.463C193.693 136.48 192.887 131.66 190.136 130.073C187.497 128.552 183.182 130.138 178.823 133.931C178.404 134.296 177.984 134.682 177.564 135.087C177.284 134.819 177.005 134.56 176.726 134.313C172.158 130.257 167.58 128.548 164.831 130.14C162.195 131.666 161.414 136.197 162.524 141.867C162.631 142.414 162.756 142.974 162.898 143.542C162.25 143.726 161.624 143.922 161.026 144.131C155.671 145.998 152.251 148.924 152.251 151.959C152.251 155.093 155.922 158.238 161.5 160.144C161.94 160.294 162.397 160.437 162.867 160.572C162.714 161.187 162.582 161.789 162.47 162.377C161.412 167.949 162.238 172.373 164.867 173.889C167.583 175.455 172.14 173.846 176.578 169.966C176.929 169.66 177.281 169.334 177.634 168.994C178.091 169.434 178.547 169.85 179.001 170.241C183.3 173.94 187.545 175.434 190.172 173.913C192.885 172.343 193.767 167.59 192.622 161.808C192.535 161.366 192.433 160.915 192.319 160.456C192.639 160.362 192.953 160.264 193.259 160.162C199.058 158.241 202.83 155.135 202.83 151.959C202.83 148.913 199.3 145.967 193.837 144.087ZM192.58 158.111C192.303 158.203 192.019 158.291 191.73 158.377C191.09 156.351 190.226 154.196 189.169 151.969C190.178 149.796 191.008 147.669 191.631 145.655C192.148 145.805 192.65 145.963 193.134 146.13C197.815 147.741 200.67 150.123 200.67 151.959C200.67 153.914 197.586 156.452 192.58 158.111ZM190.502 162.228C191.008 164.785 191.081 167.096 190.745 168.903C190.444 170.527 189.838 171.61 189.089 172.043C187.495 172.966 184.087 171.767 180.41 168.603C179.989 168.24 179.564 167.853 179.139 167.443C180.564 165.885 181.988 164.073 183.378 162.06C185.823 161.843 188.134 161.488 190.229 161.004C190.332 161.42 190.423 161.829 190.502 162.228ZM169.494 171.884C167.937 172.434 166.697 172.45 165.947 172.017C164.352 171.097 163.688 167.545 164.593 162.78C164.697 162.234 164.82 161.674 164.962 161.101C167.034 161.559 169.327 161.889 171.778 162.088C173.178 164.057 174.643 165.867 176.12 167.452C175.798 167.763 175.476 168.06 175.157 168.339C173.194 170.055 171.228 171.272 169.494 171.884ZM162.198 158.099C159.732 157.256 157.695 156.161 156.299 154.965C155.045 153.891 154.411 152.824 154.411 151.959C154.411 150.117 157.157 147.768 161.737 146.171C162.293 145.977 162.874 145.795 163.478 145.623C164.111 147.682 164.941 149.835 165.943 152.011C164.928 154.22 164.086 156.407 163.447 158.49C163.017 158.367 162.6 158.236 162.198 158.099ZM164.644 141.452C163.694 136.594 164.325 132.929 165.913 132.01C167.606 131.03 171.347 132.427 175.291 135.928C175.543 136.152 175.796 136.387 176.05 136.629C174.581 138.207 173.128 140.003 171.741 141.961C169.362 142.182 167.085 142.536 164.992 143.01C164.86 142.481 164.744 141.96 164.644 141.452ZM186.462 146.839C185.961 145.975 185.448 145.131 184.924 144.31C186.538 144.514 188.084 144.784 189.536 145.116C189.1 146.513 188.557 147.974 187.917 149.471C187.458 148.6 186.973 147.722 186.462 146.839ZM177.565 138.173C178.561 139.253 179.559 140.458 180.541 141.766C179.552 141.72 178.55 141.695 177.541 141.695C176.54 141.695 175.546 141.719 174.563 141.765C175.546 140.469 176.552 139.265 177.565 138.173ZM168.61 146.854C168.111 147.721 167.634 148.594 167.183 149.47C166.553 147.977 166.015 146.51 165.575 145.093C167.019 144.77 168.557 144.506 170.161 144.306C169.63 145.134 169.112 145.985 168.61 146.854V146.854ZM170.207 159.766C168.55 159.581 166.988 159.331 165.546 159.017C165.992 157.575 166.543 156.076 167.185 154.551C167.638 155.426 168.116 156.3 168.619 157.169H168.619C169.131 158.054 169.662 158.921 170.207 159.766ZM177.624 165.897C176.6 164.792 175.579 163.57 174.581 162.255C175.55 162.293 176.537 162.312 177.541 162.312C178.571 162.312 179.591 162.289 180.594 162.245C179.609 163.583 178.614 164.807 177.624 165.897ZM187.938 154.474C188.614 156.015 189.184 157.506 189.636 158.923C188.17 159.258 186.586 159.527 184.918 159.727C185.443 158.895 185.961 158.037 186.471 157.154C186.986 156.26 187.475 155.365 187.938 154.474ZM184.599 156.074C183.808 157.445 182.997 158.754 182.172 159.989C180.672 160.096 179.121 160.152 177.541 160.152C175.967 160.152 174.435 160.103 172.961 160.007C172.104 158.756 171.274 157.443 170.489 156.086H170.489C169.706 154.733 168.984 153.368 168.331 152.011C168.984 150.65 169.703 149.284 170.482 147.933L170.482 147.934C171.263 146.579 172.085 145.273 172.935 144.029C174.439 143.915 175.982 143.856 177.54 143.856H177.541C179.106 143.856 180.651 143.916 182.155 144.031C182.991 145.265 183.808 146.567 184.592 147.922C185.385 149.292 186.113 150.649 186.772 151.98C186.115 153.334 185.388 154.705 184.599 156.074ZM189.056 131.945C190.75 132.922 191.409 136.861 190.344 142.027C190.277 142.356 190.2 142.692 190.117 143.032C188.019 142.548 185.74 142.188 183.354 141.964C181.964 139.985 180.524 138.186 179.079 136.628C179.467 136.254 179.855 135.898 180.242 135.561C183.976 132.311 187.466 131.028 189.056 131.945ZM177.541 147.442C180.035 147.442 182.057 149.464 182.057 151.959C182.057 154.453 180.035 156.475 177.541 156.475C175.046 156.475 173.024 154.453 173.024 151.959C173.024 149.464 175.046 147.442 177.541 147.442Z" fill="white"/>
<g filter="url(#filter5_d_3_122)">
<circle cx="158.002" cy="566.002" r="45.0015" fill="#090E16"/>
</g>
<path d="M155.5 550.449C149.5 550.449 145.75 553.449 144.25 559.449C146.5 556.449 149.125 555.324 152.125 556.074C153.837 556.502 155.06 557.743 156.414 559.118C158.62 561.357 161.173 563.949 166.75 563.949C172.75 563.949 176.5 560.949 178 554.949C175.75 557.949 173.125 559.074 170.125 558.324C168.413 557.896 167.19 556.654 165.836 555.279C163.63 553.04 161.077 550.449 155.5 550.449ZM144.25 563.949C138.25 563.949 134.5 566.949 133 572.949C135.25 569.949 137.875 568.824 140.875 569.574C142.587 570.002 143.81 571.243 145.164 572.618C147.37 574.857 149.923 577.449 155.5 577.449C161.5 577.449 165.25 574.449 166.75 568.449C164.5 571.449 161.875 572.574 158.875 571.824C157.163 571.396 155.94 570.154 154.586 568.779C152.38 566.54 149.827 563.949 144.25 563.949Z" fill="white"/>
<g filter="url(#filter6_f_3_122)">
<circle cx="415.261" cy="370.636" r="320.636" fill="#E24A4A" fill-opacity="0.75"/>
</g>
<g filter="url(#filter7_i_3_122)">
<path fill-rule="evenodd" clip-rule="evenodd" d="M356.212 495.444C402.402 520.064 454.197 517.329 494.78 495.442V549.378L495.238 549.365V581.033H356.212V495.444Z" fill="#7B5235"/>
<path fill-rule="evenodd" clip-rule="evenodd" d="M356.211 540.384C402.4 565.006 454.197 562.27 494.779 540.384V574.778L525.986 574.001L526.374 574.015C526.374 656.918 328.177 669.328 328.177 573.89L328.95 573.856L356.211 573.995V540.384Z" fill="#7B5235"/>
<path fill-rule="evenodd" clip-rule="evenodd" d="M275.071 199.667C385.298 129.483 526.315 154.441 573.959 200.721C587.734 233.868 588.707 265.839 584.655 300.158C593.96 293.481 605.026 295.009 613.745 301.227C617.277 329.705 626.739 386.038 584.339 388.483C569.742 570.205 302.281 592.824 266.127 389.077C224.104 387.628 235.435 330.694 238.061 303.353C248.143 295.684 259.656 299.544 266.802 302.975L275.071 199.667Z" fill="#7B5235"/>
<path fill-rule="evenodd" clip-rule="evenodd" d="M258.699 276.625C259.278 278.216 257.396 279.807 251.752 282.699C240.07 288.534 239.046 289.747 239.017 298.887V299.328C239.017 311.619 240.898 314.799 249.002 315.957C257.252 317.114 262.462 318.993 263.91 321.307C264.488 322.319 265.068 326.947 265.068 331.718C265.068 341.985 268.251 356.446 272.159 363.964C283.158 385.366 311.812 396.211 346.545 392.162C363.623 389.993 373.609 386.667 384.463 379.437C400.673 368.592 408.197 354.711 409.355 332.876C410.224 319.571 410.224 319.571 414.566 318.125C420.21 316.102 434.248 316.102 440.038 318.125C444.523 319.716 444.523 319.716 444.523 329.984C444.523 341.84 447.562 356.012 451.614 363.966C462.613 385.366 491.268 396.211 525.857 392.162C543.079 389.994 553.065 386.667 563.92 379.438C580.128 368.594 587.654 354.277 589.101 331.864C590.114 317.114 589.392 317.838 605.31 315.813C613.414 314.801 615.296 311.619 615.296 299.184C615.296 289.35 613.703 287.472 600.245 281.687L592.139 278.216L579.548 274.314L570.287 272.289C565.222 271.277 558.709 270.408 555.959 270.263C553.065 270.263 545.829 267.66 538.593 264.046C526.58 258.117 526.002 257.972 511.819 257.972C495.61 257.972 484.177 261.299 474.914 268.529C472.165 270.697 466.376 273.445 462.323 274.457C458.126 275.47 450.312 278.217 444.957 280.531C430.919 286.46 423.683 286.17 405.738 278.94C397.923 275.76 390.542 273.155 389.529 273.155C388.515 273.155 385.187 271.132 382.148 268.674C372.596 261.154 361.886 257.972 345.388 257.972C331.35 257.972 330.482 258.262 318.036 264.191C309.642 268.24 303.129 270.263 299.221 270.263C296.037 270.408 289.09 271.277 283.88 272.433L258.699 276.625ZM374.477 295.279C391.842 300.919 397.197 308.582 397.342 327.959C397.486 338.226 396.909 341.553 394.159 347.191C384.608 366.712 357.399 377.703 325.126 375.244C300.379 373.22 287.643 366.28 280.841 350.951C276.499 340.974 275.921 317.114 279.972 309.739C283.735 302.798 290.972 298.027 302.838 294.845C312.101 292.387 317.166 292.098 340.322 292.387C360.293 292.82 368.977 293.544 374.477 295.279ZM553.932 295.279C571.3 300.919 576.654 308.582 576.799 327.959C576.944 338.226 576.364 341.553 573.615 347.191C564.063 366.712 536.854 377.703 504.581 375.244C479.834 373.22 467.098 366.28 460.296 350.951C455.954 340.974 455.377 317.114 459.428 309.739C463.191 302.798 470.427 298.027 482.294 294.845C491.557 292.387 496.621 292.098 519.777 292.387C539.749 292.82 548.432 293.544 553.932 295.279Z" fill="#7B583F"/>
<path fill-rule="evenodd" clip-rule="evenodd" d="M389.37 102.322L380.252 108.251L375.621 103.768C368.385 96.6833 364.911 97.9847 359.412 109.698C356.083 116.927 351.887 117.795 344.651 113.023C341.756 110.999 338.138 109.263 336.691 109.263C333.507 109.263 330.468 114.18 329.165 120.687C328.153 126.037 324.679 130.954 321.784 130.954C320.772 130.954 317.008 129.652 313.391 128.061C307.891 125.603 306.154 125.458 303.115 126.76C299.642 128.351 299.352 129.218 299.352 138.762C299.352 145.703 298.34 151.054 296.458 155.103C293.708 161.176 293.563 161.32 286.762 161.32C275.473 161.32 270.118 159.959 275.618 166.178C278.513 169.214 276.631 172.395 270.987 173.697C260.567 176.3 257.528 182.952 263.172 190.037C267.08 195.098 267.935 190.821 261.711 193.713C255.199 196.894 254.186 200.51 258.383 204.992C261.567 208.463 261.567 208.607 259.83 227.695C258.094 246.204 256.672 265.827 258.699 271.177C259.278 272.768 257.396 274.359 251.752 277.251C239.885 283.179 239.017 284.336 239.017 293.88C239.017 306.171 240.898 309.353 249.003 310.509C257.252 311.666 262.461 313.545 263.909 315.86C264.488 316.872 265.067 321.499 265.067 326.271C265.067 336.538 268.25 350.998 272.158 358.517C283.157 379.919 311.812 390.763 346.546 386.715C363.623 384.546 373.609 381.22 384.463 373.99C400.672 363.145 408.197 349.262 409.356 327.428C410.224 314.124 410.224 314.124 414.566 312.679C420.21 310.654 434.248 310.654 440.037 312.679C444.523 314.27 444.523 314.27 444.523 324.536C444.523 336.394 447.562 350.565 451.615 358.518C462.614 379.919 491.268 390.764 525.857 386.716C543.079 384.546 553.065 381.221 563.92 373.991C580.128 363.146 587.654 348.83 589.101 326.417C590.114 311.667 589.391 312.39 605.31 310.365C613.415 309.353 615.296 306.172 615.296 293.736C615.296 283.904 613.703 282.024 600.245 276.24L592.14 272.769V258.309C591.995 233.582 585 215.928 583.5 211.5C582.823 209.5 584.602 206.3 580.984 204.565C574.297 202.065 569.5 199 560.5 194.157C558.763 195.892 562.472 206.253 566.814 214.928C572.168 225.629 576.944 243.704 578.536 259.321L579.549 268.865L570.287 266.841C565.221 265.829 558.709 264.961 555.959 264.816C553.065 264.816 545.829 262.214 538.592 258.599C526.58 252.67 526.002 252.525 511.819 252.525C495.61 252.525 484.176 255.851 474.915 263.081C472.165 265.251 466.376 267.997 462.324 269.01C458.127 270.022 450.312 272.77 444.957 275.083C430.919 281.012 423.683 280.723 405.737 273.492C397.922 270.312 390.542 267.709 389.528 267.709C388.515 267.709 385.187 265.684 382.147 263.226C372.596 255.707 361.886 252.525 345.388 252.525C331.35 252.525 330.481 252.814 318.035 258.743C309.641 262.792 303.129 264.816 299.221 264.816C296.037 264.961 289.091 265.829 283.881 266.985C269.119 270.167 270.277 272.046 271.434 247.753C272.303 226.931 275.052 209.289 278.237 203.216C281.855 196.419 310.51 181.814 338.876 172.271C374.043 160.558 413.552 159.075 458.127 162.112C496.333 164.57 506.465 164.751 548.724 187.454C563.485 195.407 579.26 204.566 582.443 205C582.943 199 581.5 196.5 581.5 193.5C582.443 187.454 580.984 185.954 580.984 182.5C580.984 172.667 579.957 182.169 582.417 173.493C584.154 167.419 584.154 169.118 581.984 165.937C579.957 162.9 578.51 162.322 572.721 162.322C568.959 162.467 563.169 163.045 559.841 163.623C553.907 164.78 552.762 163.78 553.486 160.02C556.38 145.85 552.907 142.668 538.869 146.283C534.383 147.44 530.185 148.163 529.896 147.729C529.462 147.296 524.896 149.957 525.909 145.186C527.645 137.377 527.501 136.076 525.475 133.906C523.304 131.882 522.002 131.882 513.607 133.473C500.149 136.22 500.083 127.919 495.162 120.399C490.097 113.025 485.466 110.422 480.69 112.301C478.085 113.313 475.336 112.88 470.126 110.567C464.626 108.253 461.442 107.674 456.522 108.397C451.456 109.265 448.706 108.686 443.931 106.228C439.01 103.77 436.26 103.336 430.327 104.059C423.959 104.782 421.643 104.203 414.263 100.588C409.632 98.2749 404.132 96.3948 402.106 96.2501C400.08 96.2501 394.436 98.9976 389.371 102.324L389.37 102.322ZM374.476 289.831C391.843 295.471 397.198 303.135 397.342 322.511C397.487 332.778 396.908 336.104 394.159 341.743C384.607 361.265 357.399 372.255 325.126 369.797C300.379 367.773 287.643 360.831 280.841 345.503C276.499 335.526 275.92 311.666 279.973 304.292C283.735 297.35 290.971 292.579 302.838 289.397C312.101 286.939 317.166 286.65 340.322 286.939C360.293 287.373 368.977 288.096 374.476 289.831ZM553.932 289.831C571.299 295.471 576.654 303.135 576.798 322.511C576.943 332.778 576.364 336.104 573.615 341.743C564.063 361.265 536.855 372.255 504.581 369.797C479.834 367.773 467.099 360.831 460.297 345.503C455.955 335.526 455.376 311.666 459.428 304.292C463.191 297.35 470.427 292.579 482.294 289.397C491.557 286.939 496.622 286.65 519.778 286.939C539.749 287.373 548.432 288.096 553.932 289.831Z" fill="#2C1B18"/>
<path fill-rule="evenodd" clip-rule="evenodd" d="M327.876 307.328C320.205 310.943 311.376 320.053 311.376 324.392C311.376 327.717 313.692 327.717 318.179 324.102C329.901 314.848 354.794 314.848 367.529 323.958C369.989 325.548 372.594 326.994 373.463 326.994C376.502 326.994 375.055 321.788 370.424 316.293C364.346 308.774 353.491 303.857 343.216 303.857C337.861 303.857 332.796 305.014 327.876 307.328V307.328Z" fill="#533824"/>
<path fill-rule="evenodd" clip-rule="evenodd" d="M495.754 307.328C488.084 310.943 479.255 320.053 479.255 324.392C479.255 327.717 481.571 327.717 486.058 324.102C497.78 314.848 522.672 314.848 535.408 323.958C537.868 325.548 540.473 326.994 541.342 326.994C544.381 326.994 542.934 321.788 538.302 316.293C532.224 308.774 521.37 303.857 511.094 303.857C505.74 303.857 500.675 305.014 495.754 307.328L495.754 307.328Z" fill="#533824"/>
<path fill-rule="evenodd" clip-rule="evenodd" d="M393.435 376.448C395.028 382.666 399.658 387.583 407.762 391.487C414.275 394.668 417.604 395.392 427.156 395.392C436.707 395.392 440.036 394.668 446.548 391.487C454.653 387.583 459.284 382.667 460.875 376.448L461.599 373.268H427.156H392.711L393.435 376.448Z" fill="#7B583F"/>
<path fill-rule="evenodd" clip-rule="evenodd" d="M386 451C387.881 463.002 396.999 475.294 408.287 481.077C416.536 485.416 431.732 486.283 440.416 482.958C453.441 477.897 464.73 464.304 466.756 451H386Z" fill="#3E291B"/>
<path d="M357.5 516.5C294.3 489.3 271.5 420.833 268 390C287.5 430.333 346.6 511 427 511C507.4 511 565.167 430.333 584 390C577.5 469.5 527.5 500.5 509.5 511C491.5 521.5 436.5 550.5 357.5 516.5Z" fill="#533626"/>
<path d="M426 426.5C367.2 428.5 368 476.167 360.5 494L345 482C361.667 465.833 357 417.5 426 417.5C503.5 417.5 491.5 469.167 508 487L492.5 494C484 474.5 484.8 424.5 426 426.5Z" fill="#533626"/>
<path d="M478.216 713.522L487.51 705.972C489.663 704.223 492.829 704.548 494.58 706.701C496.331 708.852 496.004 712.015 493.851 713.764L489.353 717.418L522.007 744.909C524.161 746.658 524.487 749.821 522.736 751.973C521.743 753.193 520.294 753.827 518.834 753.827C517.72 753.827 516.598 753.458 515.667 752.701L478.216 721.314C477.043 720.36 476.361 718.93 476.361 717.418C476.361 715.907 477.043 714.476 478.216 713.522Z" fill="#524AE2"/>
<path d="M519.484 667.391C522.152 667.412 524.298 669.591 524.277 672.257L523.862 749.037C523.84 751.703 521.659 753.847 518.992 753.826C518.315 753.821 517.674 753.677 517.091 753.422C515.376 752.671 514.182 750.951 514.198 748.96L514.614 672.181C514.636 669.514 516.816 667.37 519.484 667.391Z" fill="#524AE2"/>
<path d="M540.693 720.207L544.125 717.418L531.901 707.486C529.747 705.736 529.421 702.575 531.172 700.422C532.922 698.271 536.088 697.944 538.242 699.694L555.262 713.522C556.436 714.476 557.117 715.907 557.117 717.418C557.117 718.93 556.436 720.36 555.262 721.314L547.034 727.999C546.102 728.755 544.981 729.124 543.867 729.124C542.406 729.124 540.957 728.49 539.964 727.27C538.214 725.119 538.54 721.956 540.693 720.207Z" fill="#C83267"/>
<path fill-rule="evenodd" clip-rule="evenodd" d="M327.295 573.942C284.603 578.097 245.818 593.997 213.545 620.497C185.773 643.204 178.026 661.252 157.694 686.954C199.12 729.898 254.827 766.284 315.574 786.381C356.096 799.703 383.738 804 427.155 804C470.573 804 498.214 799.703 538.737 786.381C600.022 766.798 651.645 734.707 698.18 688.645C666.308 647.539 653.189 620.598 601.835 595.285C580.271 584.543 554.944 576.807 535.552 574.801L526.419 573.979L525.984 573.969L524.987 580.818C520.646 613.479 479.691 637.545 428.602 637.545C377.516 637.545 337.284 613.765 332.072 580.675C331.06 574.086 330.625 573.512 327.297 573.942H327.295Z" fill="#090E16"/>
</g>
<path d="M520.991 724.749C521.36 725.013 522.134 725.389 523.314 725.879C524.531 726.332 525.951 726.558 527.574 726.558C528.864 726.558 529.915 726.332 530.727 725.879C531.575 725.427 532.202 724.749 532.607 723.844C533.05 722.902 533.345 721.696 533.492 720.226C533.64 718.719 533.714 716.91 533.714 714.8V694.053H542.785V714.46C542.785 717.475 542.619 720.226 542.287 722.714C541.955 725.201 541.273 727.368 540.241 729.215C539.245 731.024 537.733 732.418 535.705 733.398C533.677 734.34 530.966 734.811 527.574 734.811C525.841 734.811 524.273 734.604 522.872 734.189C521.471 733.775 520.18 733.153 519 732.324L520.991 724.749Z" fill="white"/>
<rect x="533.914" y="694" width="23.0865" height="8.84701" fill="white"/>
<rect x="547.31" y="710.346" width="9.68958" height="7.49889" fill="white"/>
<defs>
<filter id="filter0_d_3_122" x="590" y="106" width="190.003" height="190.003" filterUnits="userSpaceOnUse" color-interpolation-filters="sRGB">
<feFlood flood-opacity="0" result="BackgroundImageFix"/>
<feColorMatrix in="SourceAlpha" type="matrix" values="0 0 0 0 0 0 0 0 0 0 0 0 0 0 0 0 0 0 127 0" result="hardAlpha"/>
<feOffset dy="4"/>
<feGaussianBlur stdDeviation="25"/>
<feComposite in2="hardAlpha" operator="out"/>
<feColorMatrix type="matrix" values="0 0 0 0 0 0 0 0 0 0 0 0 0 0 0 0 0 0 0.5 0"/>
<feBlend mode="normal" in2="BackgroundImageFix" result="effect1_dropShadow_3_122"/>
<feBlend mode="normal" in="SourceGraphic" in2="effect1_dropShadow_3_122" result="shape"/>
</filter>
<filter id="filter1_d_3_122" x="612" y="445" width="190.003" height="190.003" filterUnits="userSpaceOnUse" color-interpolation-filters="sRGB">
<feFlood flood-opacity="0" result="BackgroundImageFix"/>
<feColorMatrix in="SourceAlpha" type="matrix" values="0 0 0 0 0 0 0 0 0 0 0 0 0 0 0 0 0 0 127 0" result="hardAlpha"/>
<feOffset dy="4"/>
<feGaussianBlur stdDeviation="25"/>
<feComposite in2="hardAlpha" operator="out"/>
<feColorMatrix type="matrix" values="0 0 0 0 0 0 0 0 0 0 0 0 0 0 0 0 0 0 0.5 0"/>
<feBlend mode="normal" in2="BackgroundImageFix" result="effect1_dropShadow_3_122"/>
<feBlend mode="normal" in="SourceGraphic" in2="effect1_dropShadow_3_122" result="shape"/>
</filter>
<filter id="filter2_d_3_122" x="635" y="271" width="190.003" height="190.003" filterUnits="userSpaceOnUse" color-interpolation-filters="sRGB">
<feFlood flood-opacity="0" result="BackgroundImageFix"/>
<feColorMatrix in="SourceAlpha" type="matrix" values="0 0 0 0 0 0 0 0 0 0 0 0 0 0 0 0 0 0 127 0" result="hardAlpha"/>
<feOffset dy="4"/>
<feGaussianBlur stdDeviation="25"/>
<feComposite in2="hardAlpha" operator="out"/>
<feColorMatrix type="matrix" values="0 0 0 0 0 0 0 0 0 0 0 0 0 0 0 0 0 0 0.5 0"/>
<feBlend mode="normal" in2="BackgroundImageFix" result="effect1_dropShadow_3_122"/>
<feBlend mode="normal" in="SourceGraphic" in2="effect1_dropShadow_3_122" result="shape"/>
</filter>
<filter id="filter3_d_3_122" x="0" y="269" width="190.003" height="190.003" filterUnits="userSpaceOnUse" color-interpolation-filters="sRGB">
<feFlood flood-opacity="0" result="BackgroundImageFix"/>
<feColorMatrix in="SourceAlpha" type="matrix" values="0 0 0 0 0 0 0 0 0 0 0 0 0 0 0 0 0 0 127 0" result="hardAlpha"/>
<feOffset dy="4"/>
<feGaussianBlur stdDeviation="25"/>
<feComposite in2="hardAlpha" operator="out"/>
<feColorMatrix type="matrix" values="0 0 0 0 0 0 0 0 0 0 0 0 0 0 0 0 0 0 0.5 0"/>
<feBlend mode="normal" in2="BackgroundImageFix" result="effect1_dropShadow_3_122"/>
<feBlend mode="normal" in="SourceGraphic" in2="effect1_dropShadow_3_122" result="shape"/>
</filter>
<filter id="filter4_d_3_122" x="82" y="61" width="190.003" height="190.003" filterUnits="userSpaceOnUse" color-interpolation-filters="sRGB">
<feFlood flood-opacity="0" result="BackgroundImageFix"/>
<feColorMatrix in="SourceAlpha" type="matrix" values="0 0 0 0 0 0 0 0 0 0 0 0 0 0 0 0 0 0 127 0" result="hardAlpha"/>
<feOffset dy="4"/>
<feGaussianBlur stdDeviation="25"/>
<feComposite in2="hardAlpha" operator="out"/>
<feColorMatrix type="matrix" values="0 0 0 0 0 0 0 0 0 0 0 0 0 0 0 0 0 0 0.5 0"/>
<feBlend mode="normal" in2="BackgroundImageFix" result="effect1_dropShadow_3_122"/>
<feBlend mode="normal" in="SourceGraphic" in2="effect1_dropShadow_3_122" result="shape"/>
</filter>
<filter id="filter5_d_3_122" x="63" y="475" width="190.003" height="190.003" filterUnits="userSpaceOnUse" color-interpolation-filters="sRGB">
<feFlood flood-opacity="0" result="BackgroundImageFix"/>
<feColorMatrix in="SourceAlpha" type="matrix" values="0 0 0 0 0 0 0 0 0 0 0 0 0 0 0 0 0 0 127 0" result="hardAlpha"/>
<feOffset dy="4"/>
<feGaussianBlur stdDeviation="25"/>
<feComposite in2="hardAlpha" operator="out"/>
<feColorMatrix type="matrix" values="0 0 0 0 0 0 0 0 0 0 0 0 0 0 0 0 0 0 0.5 0"/>
<feBlend mode="normal" in2="BackgroundImageFix" result="effect1_dropShadow_3_122"/>
<feBlend mode="normal" in="SourceGraphic" in2="effect1_dropShadow_3_122" result="shape"/>
</filter>
<filter id="filter6_f_3_122" x="44.6252" y="0" width="741.272" height="741.272" filterUnits="userSpaceOnUse" color-interpolation-filters="sRGB">
<feFlood flood-opacity="0" result="BackgroundImageFix"/>
<feBlend mode="normal" in="SourceGraphic" in2="BackgroundImageFix" result="shape"/>
<feGaussianBlur stdDeviation="25" result="effect1_foregroundBlur_3_122"/>
</filter>
<filter id="filter7_i_3_122" x="157.694" y="96.2501" width="540.487" height="711.75" filterUnits="userSpaceOnUse" color-interpolation-filters="sRGB">
<feFlood flood-opacity="0" result="BackgroundImageFix"/>
<feBlend mode="normal" in="SourceGraphic" in2="BackgroundImageFix" result="shape"/>
<feColorMatrix in="SourceAlpha" type="matrix" values="0 0 0 0 0 0 0 0 0 0 0 0 0 0 0 0 0 0 127 0" result="hardAlpha"/>
<feOffset dy="4"/>
<feGaussianBlur stdDeviation="2"/>
<feComposite in2="hardAlpha" operator="arithmetic" k2="-1" k3="1"/>
<feColorMatrix type="matrix" values="0 0 0 0 0 0 0 0 0 0 0 0 0 0 0 0 0 0 0.25 0"/>
<feBlend mode="normal" in2="shape" result="effect1_innerShadow_3_122"/>
</filter>
<clipPath id="clip0_3_122">
<rect x="662.354" y="174.74" width="45" height="45" rx="8" fill="white"/>
</clipPath>
</defs>
</svg>
